<?xml version="1.0" encoding="UTF-8"?>
<svg version="1.1" xmlns="http://www.w3.org/2000/svg" width="2000" height="1257">
<path d="M0 0 C0.99 0 1.98 0 3 0 C4.359375 1.50610352 4.359375 1.50610352 5.75 3.62890625 C6.27013672 4.40878906 6.79027344 5.18867188 7.32617188 5.9921875 C7.87853516 6.84039063 8.43089844 7.68859375 9 8.5625 C10.17497876 10.32562309 11.35208871 12.08732765 12.53125 13.84765625 C13.11777344 14.72566895 13.70429687 15.60368164 14.30859375 16.50830078 C16.616211 19.90777273 19.04086782 23.20931683 21.5 26.5 C27.2616286 34.25457847 32.68388316 42.2302719 38.10717773 50.22338867 C39.94425282 52.91822356 41.79228283 55.60518523 43.64305115 58.2906189 C50.33523473 68.00297063 56.96017064 77.76013821 63.56079102 87.53491211 C64.80887789 89.38211965 66.05822125 91.22847887 67.30883789 93.07397461 C74.84433862 104.19423901 82.2328773 115.38283907 89.34985352 126.77612305 C92.01931072 131.04837448 94.7530551 135.27729147 97.5 139.5 C109.35764188 157.78529016 120.73564534 176.3456547 132 195 C132.86444269 196.42716853 133.72899905 197.85426823 134.59375 199.28125 C150.41893734 225.45546014 165.46147952 252.09282231 180 279 C180.88606934 280.63461182 180.88606934 280.63461182 181.79003906 282.30224609 C195.41636427 307.45662705 208.20732944 332.92700537 220 359 C220.5377002 360.18835449 221.07540039 361.37670898 221.62939453 362.60107422 C230.67885637 382.73184279 238.59683362 403.21078045 246 424 C246.40621582 425.13727539 246.81243164 426.27455078 247.23095703 427.44628906 C254.99847025 449.39367446 261.15794943 472.02283448 265 495 C265.11714355 495.68626465 265.23428711 496.3725293 265.35498047 497.07958984 C277.52087449 572.081513 252.01700995 659.40099204 208.58203125 720.4296875 C207.72285865 721.62087826 206.86224964 722.81103468 206 724 C205.24074219 725.05445313 204.48148438 726.10890625 203.69921875 727.1953125 C163.96533075 781.25598427 105.79536987 822.26620694 38.6875 832.8125 C35.79616349 833.25331448 32.90283158 833.64312132 30 834 C29.29987793 834.0942627 28.59975586 834.18852539 27.87841797 834.28564453 C19.20495452 835.3236377 10.47273949 835.24374949 1.75 835.25 C0.9034082 835.25067474 0.05681641 835.25134949 -0.81542969 835.25204468 C-14.09643696 835.23525512 -26.94486503 834.61715497 -40 832 C-40.88961426 831.82839355 -41.77922852 831.65678711 -42.69580078 831.47998047 C-63.82968161 827.3215819 -83.65015961 820.41767263 -103 811 C-103.73702148 810.64180176 -104.47404297 810.28360352 -105.23339844 809.91455078 C-122.12450785 801.59089853 -137.50350535 790.97444983 -152 779 C-152.56638184 778.53658203 -153.13276367 778.07316406 -153.71630859 777.59570312 C-167.08105889 766.61469105 -179.33981864 754.64205028 -190 741 C-190.95054295 739.83642756 -191.90384331 738.67510416 -192.859375 737.515625 C-204.03283341 723.89713415 -213.38192697 709.34850166 -222 694 C-222.65935547 692.82920898 -222.65935547 692.82920898 -223.33203125 691.63476562 C-257.18629409 630.90197422 -273.90565594 552.91025052 -260 484 C-259.79101074 482.94377441 -259.58202148 481.88754883 -259.36669922 480.79931641 C-249.58483137 432.52011998 -230.02449263 386.35285026 -209 342 C-208.50113281 340.94586914 -208.00226562 339.89173828 -207.48828125 338.80566406 C-197.38926603 317.51076114 -186.94224767 296.4722775 -175.5546875 275.8359375 C-173.96765926 272.94100659 -172.40252816 270.03523115 -170.84375 267.125 C-163.80434243 253.98971022 -156.47313491 241.06206366 -148.89941406 228.22802734 C-146.88847225 224.81046017 -144.89194114 221.38478359 -142.8984375 217.95703125 C-130.23722502 196.20650443 -117.10328937 174.76854013 -103.60429382 153.52651978 C-102.02434196 151.03833489 -100.44759771 148.54814221 -98.87133789 146.05761719 C-90.56569443 132.95097659 -82.1140973 119.94728476 -73.5625 107 C-72.93069824 106.0423172 -72.29889648 105.0846344 -71.64794922 104.09793091 C-63.06064542 91.08344253 -54.42922602 78.10546318 -45.56787109 65.27539062 C-43.9185627 62.8818132 -42.2803014 60.48097257 -40.64453125 58.078125 C-34.02573698 48.35866906 -27.31105815 38.71329181 -20.50585938 29.12353516 C-18.415118 26.17521017 -16.32999704 23.22293649 -14.24609375 20.26977539 C-13.22148601 18.81872925 -12.19548434 17.36866622 -11.16796875 15.91967773 C-9.00874028 12.87120701 -6.87609462 9.81502069 -4.796875 6.7109375 C-3.87648438 5.33808594 -3.87648438 5.33808594 -2.9375 3.9375 C-2.17759766 2.77541016 -2.17759766 2.77541016 -1.40234375 1.58984375 C-0.70818359 0.80287109 -0.70818359 0.80287109 0 0 Z " fill="#101010" transform="translate(989,15)"/>
<path d="M0 0 C7.76393806 0.58927519 15.37285435 1.61453723 23.04296875 2.94140625 C24.78944954 3.23976128 24.78944954 3.23976128 26.57121277 3.54414368 C30.44456021 4.20985372 34.31627073 4.88461322 38.1875 5.5625 C39.19683971 5.73871761 39.19683971 5.73871761 40.22657013 5.91849518 C97.46869655 15.91728893 154.50276976 27.39928971 211 41 C212.20430664 41.28941467 213.40861328 41.57882935 214.64941406 41.87701416 C275.28781743 56.47650681 335.15247143 73.28874543 394 94 C393.40820236 97.6236337 392.42355832 100.50599417 390.75366211 103.76977539 C390.28427216 104.69560425 389.8148822 105.62143311 389.33126831 106.57531738 C388.81847321 107.57268921 388.3056781 108.57006104 387.77734375 109.59765625 C386.67749172 111.76554202 385.57797747 113.93359917 384.47875977 116.10180664 C383.61119553 117.80580124 383.61119553 117.80580124 382.72610474 119.54421997 C371.4419747 141.74070003 360.6812399 164.05927168 351 187 C350.73954895 187.61520508 350.4790979 188.23041016 350.21075439 188.86425781 C346.68682478 197.19632929 343.29168392 205.57364877 340 214 C339.58057129 215.06879395 339.16114258 216.13758789 338.72900391 217.23876953 C323.48224235 256.37700159 309.02902413 299.90917808 308.796875 342.265625 C308.78986069 343.12866241 308.78284637 343.99169983 308.77561951 344.88088989 C308.75814585 347.67064671 308.75176106 350.46019036 308.75 353.25 C308.74932526 354.20851868 308.74865051 355.16703735 308.74795532 356.15460205 C308.76630015 372.61454511 309.6138802 388.69171666 312 405 C312.16628906 406.1653125 312.33257813 407.330625 312.50390625 408.53125 C317.77326491 444.44095348 328.01482485 478.94672873 343 512 C343.36641602 512.82709473 343.73283203 513.65418945 344.11035156 514.50634766 C353.92608441 536.60677503 366.40985134 557.71253519 381 577 C381.47276367 577.62680664 381.94552734 578.25361328 382.43261719 578.89941406 C387.59196792 585.69542744 392.94167479 592.25181326 398.734375 598.5234375 C400.62119664 600.58592874 402.45440818 602.67788158 404.28125 604.79296875 C413.60285119 615.46971453 423.81835845 625.29803378 435 634 C436.19745119 634.97263328 437.39261573 635.948086 438.5859375 636.92578125 C445.43584031 642.51577091 452.28046744 647.71388982 459.8046875 652.37890625 C462 654 462 654 463 657 C432.5362385 662.20259243 399.45854794 662.30854429 369 657 C367.85499023 656.80132324 366.70998047 656.60264648 365.53027344 656.39794922 C307.60222092 646.00080615 253.95481912 620.30705799 208.88916016 582.58056641 C207.08306044 581.06949254 205.26674415 579.57151107 203.44921875 578.07421875 C189.44581183 566.42707844 176.77885307 553.69536664 166 539 C165.58588867 538.44666992 165.17177734 537.89333984 164.74511719 537.32324219 C131.82583637 493.31968288 110.86350206 440.4336581 92.70324707 388.98931885 C91.97561452 386.93101927 91.24338946 384.87439055 90.51074219 382.81787109 C60.12337481 297.31449323 39.27267488 208.53878411 3.3125 23 C3.1392923 21.98679688 2.96608459 20.97359375 2.78762817 19.9296875 C2.30926659 17.12038088 1.83514759 14.31040412 1.36328125 11.5 C1.22327698 10.675 1.08327271 9.85 0.93902588 9 C0.43423876 5.96331507 0 3.08432811 0 0 Z " fill="#101010" transform="translate(377,190)"/>
<path d="M0 0 C-2.17770018 16.22632241 -4.89305383 32.32935161 -7.8125 48.4375 C-8.16406662 50.38245361 -8.16406662 50.38245361 -8.5227356 52.36669922 C-23.27077699 133.82398969 -40.55465094 214.93368009 -203 578 C-203.53157715 578.44537109 -204.0631543 578.89074219 -204.61083984 579.34960938 C-228.24713664 599.09655066 -253.47209785 615.20762702 -281 629 C-281.7307373 629.37463379 -282.46147461 629.74926758 -283.21435547 630.13525391 C-311.89580816 644.82407286 -344.15364558 653.65471198 -376 658 C-377.29655518 658.17732666 -378.59311035 658.35465332 -379.92895508 658.53735352 C-391.8149716 660.06063222 -403.58968026 660.35626021 -415.5625 660.3125 C-416.51935699 660.31167419 -417.47621399 660.31084839 -418.46206665 660.30999756 C-451.95956982 660.24356964 -451.95956982 660.24356964 -463 657 C-463.33 656.34 -463.66 655.68 -464 655 C-463.319375 654.56171875 -462.63875 654.1234375 -461.9375 653.671875 C-449.74319108 645.69368353 -438.00417951 637.19364168 -427.36328125 627.21484375 C-425.34888468 625.32697126 -423.29614125 623.53013714 -421.1875 621.75 C-412.09906197 613.82099234 -403.5979041 605.14835648 -396.125 595.68359375 C-393.89969996 592.87333432 -391.58088871 590.16060556 -389.25 587.4375 C-377.70753248 573.55437731 -367.93109573 558.66928849 -359 543 C-358.21109375 541.62763184 -358.21109375 541.62763184 -357.40625 540.22753906 C-319.65027404 474.13189124 -298.14519443 387.18888098 -312 311 C-312.29003906 309.3605542 -312.29003906 309.3605542 -312.5859375 307.68798828 C-325.32322792 237.30856182 -356.44506972 171.27415525 -388.53271484 107.90234375 C-390.70325246 103.60894089 -392.85284473 99.3051335 -395 95 C-384.08635653 90.07757243 -372.75227518 86.48892935 -361.375 82.8125 C-360.35601624 82.48196625 -359.33703247 82.1514325 -358.28717041 81.81088257 C-339.95093769 75.86829658 -321.5566908 70.21213825 -303 65 C-302.20795166 64.7769519 -301.41590332 64.55390381 -300.59985352 64.32409668 C-217.20632299 40.8637858 -132.47298456 22.19595895 -35.4375 5.125 C-34.29870014 4.92633457 -34.29870014 4.92633457 -33.13689423 4.7236557 C-28.79720428 3.96694387 -24.45661185 3.21585046 -20.11437798 2.47386932 C-18.17573753 2.14216221 -16.2376477 1.80724203 -14.29957581 1.472229 C-13.14167038 1.27659363 -11.98376495 1.08095825 -10.79077148 0.87939453 C-9.78723129 0.70844269 -8.7836911 0.53749084 -7.7497406 0.36135864 C-5.12830212 0.01686089 -2.64007891 -0.0678668 0 0 Z " fill="#101010" transform="translate(1604,190)"/>
<path d="M0 0 C1.93090904 0.57476539 3.86598088 1.1357054 5.8046875 1.68359375 C6.78961182 1.96952393 7.77453613 2.2554541 8.78930664 2.55004883 C21.09535586 6.08929156 33.3564736 8.97468449 46 11 C46.68255859 11.11182617 47.36511719 11.22365234 48.06835938 11.33886719 C84.83423123 17.18379265 125.45029141 14.49671763 160.83984375 2.79296875 C162.56690552 2.22582153 162.56690552 2.22582153 164.32885742 1.6472168 C166.54856931 0.90287753 168.75933596 0.13109043 170.95825195 -0.67260742 C178.68010939 -3.28806542 183.43431693 -2.81691912 191 0 C192.56961049 0.48734132 194.14249336 0.96429127 195.71875 1.4296875 C196.49178467 1.66526367 197.26481934 1.90083984 198.0612793 2.14355469 C237.02969197 13.8313477 276.68929876 14.74079703 317 13 C320.10187831 18.76063116 322.11443465 24.22471583 323.6875 30.5625 C324.00557617 31.77969727 324.00557617 31.77969727 324.33007812 33.02148438 C331.98368851 62.93575336 322.81979162 88.38857933 307.87890625 114.24609375 C295.66647778 134.75213339 281.04827451 154.13026412 265.4375 172.1640625 C263.08644514 174.8994244 260.81947681 177.68683962 258.5625 180.5 C254.18315122 185.88573414 249.49955162 190.94816799 244.765625 196.01953125 C242.67089076 198.26598689 240.62670331 200.54473428 238.625 202.875 C225.84371123 217.5658837 211.94060215 231.21673309 198.16650391 244.96386719 C195.19804633 247.92658187 192.23416683 250.8938298 189.27155495 253.86238861 C186.95865285 256.17892194 184.6433528 258.49304684 182.32734299 260.80647278 C181.23352374 261.89963225 180.14042643 262.99351465 179.04811478 264.08818054 C173.73789846 269.40734912 168.42261212 274.67297405 162.68173218 279.53234863 C160.86958597 281.11381261 159.18364907 282.78306808 157.5 284.5 C154.60000647 287.4454073 151.56373569 290.15463709 148.43359375 292.8515625 C145.23404235 295.67620659 142.11962592 298.58766366 139 301.5 C133.04297226 307.05162865 126.98946086 312.45118184 120.79296875 317.734375 C119.59097329 318.76021453 118.38915577 319.78626258 117.1875 320.8125 C116.58123779 321.32989746 115.97497559 321.84729492 115.3503418 322.38037109 C111.60909899 325.58515078 107.93876164 328.85217052 104.3125 332.1875 C88.13676465 346.9753764 88.13676465 346.9753764 84 347 C81.80859375 345.4453125 81.80859375 345.4453125 79.4375 343.125 C75.93270845 339.79980977 72.40007343 336.64068818 68.625 333.625 C63.48241457 329.46437925 58.62548263 325.05643696 53.77734375 320.5625 C50.89037879 317.89885863 47.95076666 315.30851652 44.984375 312.734375 C41.81097036 309.96076937 38.68724066 307.1324714 35.55859375 304.30859375 C33.90747667 302.8188072 32.25399856 301.33163123 30.59765625 299.84765625 C24.26162911 294.16885072 17.99690112 288.41627423 11.75927734 282.62988281 C9.9635313 280.96621356 8.16348095 279.30728535 6.36328125 277.6484375 C-0.87289232 270.95925028 -7.92473002 264.12561435 -14.85791016 257.12280273 C-18.46368941 253.49359691 -22.1387507 250.03927228 -26.04296875 246.73046875 C-31.79132424 241.64759154 -37.28986959 236.10269887 -42.25 230.25 C-45.77634222 226.1074038 -49.63782244 222.32533273 -53.5 218.5 C-57.89290475 214.14472298 -62.2149716 209.80516861 -66.20703125 205.07421875 C-68.18233713 202.78906097 -70.23208317 200.58629279 -72.29418945 198.37963867 C-77.2973018 193.02418359 -82.08300065 187.57505494 -86.671875 181.85546875 C-88.81391304 179.22823752 -91.01081812 176.66647503 -93.23803711 174.11206055 C-100.55791167 165.70241942 -107.34399663 156.94098825 -114 148 C-114.82250244 146.90099365 -114.82250244 146.90099365 -115.66162109 145.77978516 C-137.93881995 115.91329095 -160.30286645 82.1626708 -155.68359375 43.34082031 C-155.29014136 40.87601298 -154.83026491 38.44157962 -154.3125 36 C-154.16401611 35.2972998 -154.01553223 34.59459961 -153.86254883 33.87060547 C-152.18045993 26.72604599 -149.53512989 19.87608897 -147 13 C-145.40067627 13.05329468 -145.40067627 13.05329468 -143.76904297 13.10766602 C-101.77267419 14.4780541 -59.9312474 14.05054471 -19.93994141 -0.67260742 C-12.2152029 -3.31599542 -7.57511966 -2.7590963 0 0 Z " fill="#101010" transform="translate(905,876)"/>
<path d="M0 0 C33.48826143 3.48923638 67.20704501 15.5085091 99 26 C99.68991028 26.22667358 100.37982056 26.45334717 101.09063721 26.68688965 C173.09830459 50.35497825 243.15039369 81.03609357 311.25610352 114.19165039 C314.10408927 115.57224338 316.960719 116.93387716 319.82006836 118.29077148 C334.98319092 125.49248349 350.02712559 132.91967738 365.0402832 140.42749023 C368.43473189 142.1247663 371.83194791 143.8164274 375.22980595 145.5068655 C377.88639022 146.82959459 380.54114556 148.15596173 383.19540215 149.48335457 C384.44856951 150.10935334 385.70237615 150.73407427 386.95686531 151.35741997 C388.69849263 152.22330514 390.43731572 153.09482368 392.17602539 153.96655273 C393.15922256 154.45743881 394.14241974 154.94832489 395.15541077 155.4540863 C398.25258778 157.13727076 401.09569144 159.00531685 404 161 C401.36889731 163.05772419 398.77067828 164.74648944 395.79589844 166.26147461 C394.55986374 166.89438667 394.55986374 166.89438667 393.29885864 167.54008484 C391.96756424 168.214403 391.96756424 168.214403 390.609375 168.90234375 C389.6808371 169.37634109 388.75229919 169.85033844 387.79562378 170.33869934 C384.78237603 171.87551627 381.76631441 173.40671194 378.75 174.9375 C376.67877252 175.9916632 374.60764636 177.04602551 372.53662109 178.10058594 C366.69429439 181.07341071 360.84797889 184.03831206 355 187 C354.2829187 187.36337463 353.5658374 187.72674927 352.82702637 188.10113525 C339.08131681 195.06461151 325.25084613 201.83527755 311.32275391 208.42626953 C308.96705822 209.54197963 306.61251859 210.65990244 304.25927734 211.78076172 C282.33236646 222.22185712 260.25792506 232.28459408 238 242 C237.17246216 242.36156189 236.34492432 242.72312378 235.49230957 243.09564209 C209.8722048 254.28189363 184.1047349 264.99524633 158 275 C157.15928955 275.32313171 156.3185791 275.64626343 155.45239258 275.97918701 C22.40023527 327.092671 22.40023527 327.092671 -45.6328125 327.16796875 C-46.70892792 327.17129715 -47.78504333 327.17462555 -48.89376831 327.17805481 C-51.1576902 327.18308511 -53.4216194 327.18546435 -55.68554688 327.18530273 C-59.09518071 327.18748095 -62.50448603 327.20565634 -65.9140625 327.22460938 C-101.26474844 327.3239742 -101.26474844 327.3239742 -111.65625 317.84375 C-136.04086424 296.5583793 -168.96162275 286.23881482 -199 276 C-195.82559135 272.43866095 -192.29353596 270.37337604 -188.125 268.1875 C-165.67876662 255.9686995 -144.99801428 240.02006499 -126 223 C-125.4745459 222.53239258 -124.9490918 222.06478516 -124.40771484 221.58300781 C-120.88679649 218.44300422 -117.42186054 215.2473198 -114 212 C-113.43925781 211.46793945 -112.87851563 210.93587891 -112.30078125 210.38769531 C-104.25151577 202.6893636 -96.97267442 194.71156955 -90.32226562 185.77539062 C-88.99340591 183.9911462 -87.6462559 182.22188184 -86.296875 180.453125 C-74.76608131 165.19287246 -65.03216187 148.83483263 -56 132 C-55.54689453 131.1661377 -55.09378906 130.33227539 -54.62695312 129.47314453 C-33.25053037 90.05578336 -17.18259176 47.95413723 -2.66064453 5.60424805 C-1.10447577 1.10447577 -1.10447577 1.10447577 0 0 Z " fill="#101010" transform="translate(1556,571)"/>
<path d="M0 0 C1.11230469 2.44799805 1.11230469 2.44799805 2.171875 5.76171875 C2.58107178 7.00671143 2.99026855 8.2517041 3.41186523 9.53442383 C3.62865936 10.20873444 3.84545349 10.88304504 4.06881714 11.57778931 C13.48354064 40.73639556 25.09816946 69.22014761 38 97 C38.48533203 98.04897461 38.97066406 99.09794922 39.47070312 100.17871094 C61.38479863 147.31278328 88.6784254 194.61544679 130.4609375 227.01953125 C132.86474192 228.8944987 135.16628357 230.85972433 137.46362305 232.86279297 C155.96724382 248.91678185 176.98265244 261.55923821 198 274 C195.74830565 276.25169435 194.40647841 276.66147025 191.3984375 277.59375 C190.44541748 277.89651855 189.49239746 278.19928711 188.51049805 278.51123047 C187.47578369 278.83752441 186.44106934 279.16381836 185.375 279.5 C156.2102355 288.98958158 126.33031841 301.71039543 103.28515625 322.55078125 C93.09129568 329.01560564 73.48299343 326.33839362 61.87402344 326.31567383 C58.53286533 326.31253092 55.19261091 326.33600225 51.8515625 326.36132812 C30.78410871 326.42488441 10.20162731 324.00932447 -10.4375 319.875 C-11.18425995 319.72760376 -11.9310199 319.58020752 -12.70040894 319.42834473 C-41.70132177 313.67289638 -69.93675066 305.22823986 -98 296 C-98.70644653 295.76817017 -99.41289307 295.53634033 -100.14074707 295.29748535 C-161.54625636 275.11106326 -221.3346191 249.8813767 -279.84179688 222.47607422 C-283.22894554 220.89299592 -286.62184701 219.32271943 -290.015625 217.75390625 C-317.36520572 205.09634353 -344.41228614 191.83464237 -371.375 178.375 C-372.31257141 177.90755371 -373.25014282 177.44010742 -374.21612549 176.95849609 C-384.56544037 171.79510795 -394.86733006 166.57892337 -405 161 C-401.60031829 157.09379143 -397.8423253 155.14297624 -393.27929688 152.89672852 C-392.11693512 152.31270012 -392.11693512 152.31270012 -390.93109131 151.71687317 C-388.36415466 150.42969897 -385.79162815 149.15415753 -383.21875 147.87890625 C-381.40795125 146.97470167 -379.5974502 146.06990068 -377.78723145 145.16453552 C-373.97649091 143.26073118 -370.16312411 141.36232943 -366.34765625 139.46801758 C-361.54315605 137.08248453 -356.74380262 134.68682535 -351.94619465 132.287467 C-332.08804031 122.35897721 -312.18965671 112.57536326 -291.98495483 103.36921692 C-287.56231137 101.34052349 -283.16062433 99.26776778 -278.75752258 97.19708252 C-221.55006131 70.30138015 -162.85785262 46.3265745 -103 26 C-102.33369568 25.77310486 -101.66739136 25.54620972 -100.980896 25.31243896 C-72.88117468 15.75743112 -44.25234419 7.32964589 -15.1875 1.25 C-13.38224854 0.87149902 -13.38224854 0.87149902 -11.54052734 0.48535156 C-3.39558609 -1.13186203 -3.39558609 -1.13186203 0 0 Z " fill="#101010" transform="translate(426,572)"/>
<path d="M0 0 C1.06283203 0.31710937 2.12566406 0.63421875 3.22070312 0.9609375 C8.15259016 2.43957946 13.06686068 3.95361944 17.9375 5.625 C16.89670734 10.37875994 15.82868632 15.1217941 14.68359375 19.8515625 C14.46896484 20.7384375 14.25433594 21.6253125 14.03320312 22.5390625 C13.5923921 24.35462837 13.14966607 26.16973031 12.70507812 27.984375 C3.08325885 67.86696123 16.19514287 103.42661115 36.58544922 137.36816406 C43.25366945 148.09299931 50.48252241 158.43610873 57.9375 168.625 C58.73620242 169.72487912 59.53438286 170.82513749 60.33203125 171.92578125 C62.19631561 174.49529403 64.06471003 177.06168411 65.9375 179.625 C65.6075 180.285 65.2775 180.945 64.9375 181.625 C62.69378662 182.1466217 62.69378662 182.1466217 59.65527344 182.53540039 C58.50477509 182.68673935 57.35427673 182.83807831 56.16891479 182.9940033 C54.2522551 183.23093651 54.2522551 183.23093651 52.296875 183.47265625 C50.94142063 183.64621335 49.5860452 183.82038786 48.23074341 183.99513245 C44.50479027 184.47221187 40.77726852 184.93576771 37.04915619 185.39563751 C34.67866661 185.68859166 32.30856436 185.9845156 29.9385376 186.28118896 C-49.15911635 196.16588464 -128.54820521 203.59378596 -208.00769043 209.86069107 C-210.53352763 210.06021142 -213.05925059 210.26113069 -215.58496094 210.46224976 C-219.53909978 210.77639586 -223.49365983 211.08461267 -227.44862366 211.38819122 C-228.88945584 211.49940635 -230.33016779 211.6121935 -231.77073669 211.72676849 C-240.55453649 212.42311766 -249.2509582 212.76849885 -258.0625 212.625 C-255.79148882 205.29965081 -252.8611687 198.44810677 -249.625 191.5 C-249.09640381 190.36272461 -248.56780762 189.22544922 -248.02319336 188.05371094 C-228.73808045 146.92965739 -204.77574074 108.21287903 -174.0625 74.625 C-172.74572266 73.15160156 -172.74572266 73.15160156 -171.40234375 71.6484375 C-165.63725217 65.21861432 -159.67080547 59.20017603 -153.0625 53.625 C-152.52141602 53.16625488 -151.98033203 52.70750977 -151.42285156 52.23486328 C-142.15751916 44.43315501 -132.51959326 37.72629744 -122.0625 31.625 C-120.93070313 30.94953125 -119.79890625 30.2740625 -118.6328125 29.578125 C-89.22625295 12.90773977 -33.90738516 -10.40129161 0 0 Z " fill="#101010" transform="translate(700.0625,876.375)"/>
<path d="M0 0 C1.28052246 0.31541748 2.56104492 0.63083496 3.88037109 0.95581055 C49.19057412 12.23040187 91.53681497 27.01067279 125.99609375 59.45703125 C127.9337915 61.2463096 129.86144021 62.93653041 131.8984375 64.6015625 C134.17096252 66.51297396 136.04798189 68.29811771 137.9375 70.5625 C140.81959581 73.95542679 143.81934064 77.20000895 146.875 80.4375 C153.74692617 87.83683993 159.75671774 95.88477705 165.75 104 C166.42893311 104.91700684 166.42893311 104.91700684 167.12158203 105.85253906 C186.74528833 132.48842992 203.18030315 161.53404769 217.125 191.5 C217.63764404 192.59892578 218.15028809 193.69785156 218.6784668 194.83007812 C221.4224526 200.80568714 223.80943341 206.71626057 225.75 213 C215.4421538 213.2039573 205.29850468 212.56704207 195.03515625 211.75 C193.29550951 211.61494723 191.55583899 211.48020036 189.81614685 211.34573364 C185.12716135 210.98137217 180.4388121 210.60939915 175.75064087 210.23471832 C172.78842852 209.99807701 169.82610826 209.76282452 166.86376953 209.527771 C78.60704759 202.51147517 -9.51310678 193.94211187 -97.25 182 C-97.25 177.16662308 -96.40098514 176.55951251 -93.375 172.9375 C-80.33287247 156.70073457 -68.67832441 138.55713606 -59.25 120 C-58.86021973 119.24348145 -58.47043945 118.48696289 -58.06884766 117.70751953 C-48.4052889 98.79136745 -41.84389115 79.60594602 -41.875 58.1875 C-41.87661133 57.01622559 -41.87822266 55.84495117 -41.87988281 54.63818359 C-42.08515971 39.78780874 -44.6805899 25.40347934 -49.515625 11.36328125 C-50.25 9 -50.25 9 -50.25 6 C-49.55438965 5.79842285 -48.8587793 5.5968457 -48.14208984 5.38916016 C-44.96936868 4.46900231 -41.79718106 3.54701802 -38.625 2.625 C-37.53058594 2.30789063 -36.43617187 1.99078125 -35.30859375 1.6640625 C-34.24511719 1.3546875 -33.18164062 1.0453125 -32.0859375 0.7265625 C-31.11188965 0.44377441 -30.1378418 0.16098633 -29.13427734 -0.13037109 C-27.10225356 -0.74303985 -25.08332928 -1.40001677 -23.07568359 -2.08837891 C-15.32380395 -4.58928772 -7.63158384 -1.89655594 0 0 Z " fill="#101010" transform="translate(1313.25,876)"/>
</svg>
